<mxfile host="Electron" agent="Mozilla/5.0 (X11; Linux x86_64) AppleWebKit/537.36 (KHTML, like Gecko) draw.io/26.0.16 Chrome/132.0.6834.196 Electron/34.2.0 Safari/537.36" version="26.0.16">
  <diagram name="Page-1" id="b-w2EN_Gh1KO48FP9rRv">
    <mxGraphModel dx="2074" dy="1230" grid="1" gridSize="10" guides="1" tooltips="1" connect="1" arrows="1" fold="1" page="1" pageScale="1" pageWidth="850" pageHeight="1100" math="0" shadow="0">
      <root>
        <mxCell id="0" />
        <mxCell id="1" parent="0" />
        <mxCell id="Y3azgCp18Co24yYhu5mp-4" style="edgeStyle=orthogonalEdgeStyle;rounded=0;orthogonalLoop=1;jettySize=auto;html=1;" edge="1" parent="1" source="Y3azgCp18Co24yYhu5mp-1" target="Y3azgCp18Co24yYhu5mp-2">
          <mxGeometry relative="1" as="geometry" />
        </mxCell>
        <mxCell id="Y3azgCp18Co24yYhu5mp-5" style="edgeStyle=orthogonalEdgeStyle;rounded=0;orthogonalLoop=1;jettySize=auto;html=1;entryX=0;entryY=0.5;entryDx=0;entryDy=0;" edge="1" parent="1" source="Y3azgCp18Co24yYhu5mp-1" target="Y3azgCp18Co24yYhu5mp-3">
          <mxGeometry relative="1" as="geometry" />
        </mxCell>
        <mxCell id="Y3azgCp18Co24yYhu5mp-1" value="R1G2" style="ellipse;whiteSpace=wrap;html=1;" vertex="1" parent="1">
          <mxGeometry x="170" y="160" width="120" height="80" as="geometry" />
        </mxCell>
        <mxCell id="Y3azgCp18Co24yYhu5mp-2" value="Attritbute1R1" style="rounded=0;whiteSpace=wrap;html=1;" vertex="1" parent="1">
          <mxGeometry x="380" y="150" width="100" height="40" as="geometry" />
        </mxCell>
        <mxCell id="Y3azgCp18Co24yYhu5mp-7" value="" style="edgeStyle=orthogonalEdgeStyle;rounded=0;orthogonalLoop=1;jettySize=auto;html=1;" edge="1" parent="1" source="Y3azgCp18Co24yYhu5mp-3" target="Y3azgCp18Co24yYhu5mp-6">
          <mxGeometry relative="1" as="geometry" />
        </mxCell>
        <mxCell id="Y3azgCp18Co24yYhu5mp-3" value="Attritbute2R1" style="rounded=0;whiteSpace=wrap;html=1;" vertex="1" parent="1">
          <mxGeometry x="380" y="210" width="100" height="40" as="geometry" />
        </mxCell>
        <mxCell id="Y3azgCp18Co24yYhu5mp-6" value="R2G1" style="ellipse;whiteSpace=wrap;html=1;rounded=0;" vertex="1" parent="1">
          <mxGeometry x="600" y="230" width="80" height="80" as="geometry" />
        </mxCell>
        <mxCell id="Y3azgCp18Co24yYhu5mp-8" value="R2G2" style="ellipse;whiteSpace=wrap;html=1;rounded=0;" vertex="1" parent="1">
          <mxGeometry x="600" y="140" width="80" height="80" as="geometry" />
        </mxCell>
        <mxCell id="Y3azgCp18Co24yYhu5mp-9" style="edgeStyle=orthogonalEdgeStyle;rounded=0;orthogonalLoop=1;jettySize=auto;html=1;entryX=0.05;entryY=0.375;entryDx=0;entryDy=0;entryPerimeter=0;" edge="1" parent="1" source="Y3azgCp18Co24yYhu5mp-2" target="Y3azgCp18Co24yYhu5mp-8">
          <mxGeometry relative="1" as="geometry" />
        </mxCell>
        <mxCell id="Y3azgCp18Co24yYhu5mp-17" style="edgeStyle=orthogonalEdgeStyle;rounded=0;orthogonalLoop=1;jettySize=auto;html=1;" edge="1" parent="1" source="Y3azgCp18Co24yYhu5mp-12">
          <mxGeometry relative="1" as="geometry">
            <mxPoint x="340" y="230" as="targetPoint" />
          </mxGeometry>
        </mxCell>
        <mxCell id="Y3azgCp18Co24yYhu5mp-19" style="edgeStyle=orthogonalEdgeStyle;rounded=0;orthogonalLoop=1;jettySize=auto;html=1;entryX=0;entryY=0.5;entryDx=0;entryDy=0;" edge="1" parent="1" source="Y3azgCp18Co24yYhu5mp-12" target="Y3azgCp18Co24yYhu5mp-18">
          <mxGeometry relative="1" as="geometry" />
        </mxCell>
        <mxCell id="Y3azgCp18Co24yYhu5mp-12" value="R1G1" style="ellipse;whiteSpace=wrap;html=1;" vertex="1" parent="1">
          <mxGeometry x="170" y="260" width="120" height="80" as="geometry" />
        </mxCell>
        <mxCell id="Y3azgCp18Co24yYhu5mp-18" value="Attritbute3R1" style="rounded=0;whiteSpace=wrap;html=1;" vertex="1" parent="1">
          <mxGeometry x="375" y="310" width="100" height="40" as="geometry" />
        </mxCell>
        <mxCell id="Y3azgCp18Co24yYhu5mp-22" style="edgeStyle=orthogonalEdgeStyle;rounded=0;orthogonalLoop=1;jettySize=auto;html=1;" edge="1" parent="1" source="Y3azgCp18Co24yYhu5mp-20" target="Y3azgCp18Co24yYhu5mp-21">
          <mxGeometry relative="1" as="geometry" />
        </mxCell>
        <mxCell id="Y3azgCp18Co24yYhu5mp-20" value="R3G1" style="ellipse;whiteSpace=wrap;html=1;" vertex="1" parent="1">
          <mxGeometry x="170" y="370" width="120" height="80" as="geometry" />
        </mxCell>
        <mxCell id="Y3azgCp18Co24yYhu5mp-24" value="" style="edgeStyle=orthogonalEdgeStyle;rounded=0;orthogonalLoop=1;jettySize=auto;html=1;" edge="1" parent="1" source="Y3azgCp18Co24yYhu5mp-21" target="Y3azgCp18Co24yYhu5mp-23">
          <mxGeometry relative="1" as="geometry" />
        </mxCell>
        <mxCell id="Y3azgCp18Co24yYhu5mp-21" value="Attritbute1R3" style="rounded=0;whiteSpace=wrap;html=1;" vertex="1" parent="1">
          <mxGeometry x="375" y="390" width="100" height="40" as="geometry" />
        </mxCell>
        <mxCell id="Y3azgCp18Co24yYhu5mp-23" value="R3G2" style="ellipse;whiteSpace=wrap;html=1;rounded=0;" vertex="1" parent="1">
          <mxGeometry x="565" y="370" width="80" height="80" as="geometry" />
        </mxCell>
        <mxCell id="Y3azgCp18Co24yYhu5mp-25" value="directAttribute" style="rounded=1;whiteSpace=wrap;html=1;" vertex="1" parent="1">
          <mxGeometry x="10" y="160" width="120" height="60" as="geometry" />
        </mxCell>
        <mxCell id="Y3azgCp18Co24yYhu5mp-26" style="edgeStyle=orthogonalEdgeStyle;rounded=0;orthogonalLoop=1;jettySize=auto;html=1;entryX=0;entryY=0.388;entryDx=0;entryDy=0;entryPerimeter=0;" edge="1" parent="1" source="Y3azgCp18Co24yYhu5mp-25" target="Y3azgCp18Co24yYhu5mp-1">
          <mxGeometry relative="1" as="geometry" />
        </mxCell>
        <mxCell id="Y3azgCp18Co24yYhu5mp-29" style="edgeStyle=orthogonalEdgeStyle;rounded=0;orthogonalLoop=1;jettySize=auto;html=1;" edge="1" parent="1" source="Y3azgCp18Co24yYhu5mp-28" target="Y3azgCp18Co24yYhu5mp-12">
          <mxGeometry relative="1" as="geometry" />
        </mxCell>
        <mxCell id="Y3azgCp18Co24yYhu5mp-28" value="directAttribute" style="rounded=1;whiteSpace=wrap;html=1;" vertex="1" parent="1">
          <mxGeometry x="10" y="270" width="120" height="60" as="geometry" />
        </mxCell>
        <mxCell id="Y3azgCp18Co24yYhu5mp-31" value="" style="edgeStyle=orthogonalEdgeStyle;rounded=0;orthogonalLoop=1;jettySize=auto;html=1;" edge="1" parent="1" source="Y3azgCp18Co24yYhu5mp-30" target="Y3azgCp18Co24yYhu5mp-20">
          <mxGeometry relative="1" as="geometry" />
        </mxCell>
        <mxCell id="Y3azgCp18Co24yYhu5mp-30" value="directAttribute" style="rounded=1;whiteSpace=wrap;html=1;" vertex="1" parent="1">
          <mxGeometry x="10" y="380" width="120" height="60" as="geometry" />
        </mxCell>
      </root>
    </mxGraphModel>
  </diagram>
</mxfile>
